HIERARCHY
ROOT Hips
{
	OFFSET 0.000000 35.082581 0.000000
	CHANNELS 6 Xposition Yposition Zposition Xrotation Yrotation Zrotation 
	JOINT Spine
	{
		OFFSET 0.000000 6.876099 0.125700
		CHANNELS 3 Xrotation Yrotation Zrotation
		JOINT Spine1
		{
			OFFSET 0.000000 5.730043 0.104720
			CHANNELS 3 Xrotation Yrotation Zrotation
			JOINT Spine1_split
			{
				OFFSET 0.000000 5.730043 0.104720
				CHANNELS 3 Xrotation Yrotation Zrotation
				JOINT Spine2
				{
					OFFSET 0.000000 5.730043 0.104720
					CHANNELS 3 Xrotation Yrotation Zrotation
					JOINT Neck
					{
						OFFSET 0.000000 10.314075 0.188496
						CHANNELS 3 Xrotation Yrotation Zrotation
						JOINT Head
						{
							OFFSET 0.000000 7.643700 -2.377400
							CHANNELS 3 Xrotation Yrotation Zrotation
							JOINT HeadTop_End
							{
								OFFSET 0.000000 43.788605 -13.619600
								CHANNELS 3 Xrotation Yrotation Zrotation
								End Site
								{
									OFFSET 0.000000 0.000000 0.000000
								}
							}
						}
					}
					JOINT LeftShoulder
					{
						OFFSET 2.196100 4.412489 0.087492
						CHANNELS 3 Xrotation Yrotation Zrotation
						JOINT LeftShoulder_split
						{
							OFFSET 2.196100 4.412489 0.087492
							CHANNELS 3 Xrotation Yrotation Zrotation
							JOINT LeftArm
							{
								OFFSET 8.771219 -2.981674 -0.026999
								CHANNELS 3 Xrotation Yrotation Zrotation
								JOINT LeftForeArm
								{
									OFFSET 8.512804 0.000000 -0.000000
									CHANNELS 3 Xrotation Yrotation Zrotation
									JOINT LeftHand
									{
										OFFSET 18.484802 0.000000 -0.000000
										CHANNELS 3 Xrotation Yrotation Zrotation
										JOINT LeftHandThumb1
										{
											OFFSET 2.499420 -1.158070 2.653252
											CHANNELS 3 Xrotation Yrotation Zrotation
											JOINT LeftHandThumb2
											{
												OFFSET 2.370079 -1.368366 1.368366
												CHANNELS 3 Xrotation Yrotation Zrotation
												JOINT LeftHandThumb3
												{
													OFFSET 2.676727 -1.545410 1.545409
													CHANNELS 3 Xrotation Yrotation Zrotation
													JOINT LeftHandThumb4
													{
														OFFSET 1.692226 -0.977005 0.977007
														CHANNELS 3 Xrotation Yrotation Zrotation
														End Site
														{
															OFFSET 0.000000 0.000000 0.000000
														}
													}
												}
											}
										}
										JOINT LeftHandIndex1
										{
											OFFSET 7.924831 -0.457527 2.345128
											CHANNELS 3 Xrotation Yrotation Zrotation
											JOINT LeftHandIndex2
											{
												OFFSET 3.643303 0.000000 0.000000
												CHANNELS 3 Xrotation Yrotation Zrotation
												JOINT LeftHandIndex3
												{
													OFFSET 3.810799 0.000000 0.000000
													CHANNELS 3 Xrotation Yrotation Zrotation
													JOINT LeftHandIndex4
													{
														OFFSET 2.403702 0.000000 0.000000
														CHANNELS 3 Xrotation Yrotation Zrotation
														End Site
														{
															OFFSET 0.000000 0.000000 0.000000
														}
													}
												}
											}
										}
										JOINT LeftHandMiddle1
										{
											OFFSET 8.563995 0.000000 -0.000000
											CHANNELS 3 Xrotation Yrotation Zrotation
											JOINT LeftHandMiddle2
											{
												OFFSET 3.861618 0.000000 0.000000
												CHANNELS 3 Xrotation Yrotation Zrotation
												JOINT LeftHandMiddle3
												{
													OFFSET 3.701603 0.000000 0.000000
													CHANNELS 3 Xrotation Yrotation Zrotation
													JOINT LeftHandMiddle4
													{
														OFFSET 2.322544 0.000000 0.000000
														CHANNELS 3 Xrotation Yrotation Zrotation
														End Site
														{
															OFFSET 0.000000 0.000000 0.000000
														}
													}
												}
											}
										}
										JOINT LeftHandRing1
										{
											OFFSET 8.426460 -0.424637 -3.286992
											CHANNELS 3 Xrotation Yrotation Zrotation
											JOINT LeftHandRing2
											{
												OFFSET 3.126408 0.000000 0.000000
												CHANNELS 3 Xrotation Yrotation Zrotation
												JOINT LeftHandRing3
												{
													OFFSET 3.085026 0.000000 0.000000
													CHANNELS 3 Xrotation Yrotation Zrotation
													JOINT LeftHandRing4
													{
														OFFSET 1.644005 0.000000 0.000000
														CHANNELS 3 Xrotation Yrotation Zrotation
														End Site
														{
															OFFSET 0.000000 0.000000 0.000000
														}
													}
												}
											}
										}
									}
								}
							}
						}
					}
					JOINT RightShoulder
					{
						OFFSET -2.196100 4.412496 0.070690
						CHANNELS 3 Xrotation Yrotation Zrotation
						JOINT RightShoulder_split
						{
							OFFSET -2.196100 4.412496 0.070690
							CHANNELS 3 Xrotation Yrotation Zrotation
							JOINT RightArm
							{
								OFFSET -8.771282 -2.981682 -0.094208
								CHANNELS 3 Xrotation Yrotation Zrotation
								JOINT RightForeArm
								{
									OFFSET -8.494598 0.000000 0.000000
									CHANNELS 3 Xrotation Yrotation Zrotation
									JOINT RightHand
									{
										OFFSET -18.483803 0.000000 0.000001
										CHANNELS 3 Xrotation Yrotation Zrotation
										JOINT RightHandThumb1
										{
											OFFSET -2.527351 -1.008072 2.575253
											CHANNELS 3 Xrotation Yrotation Zrotation
											JOINT RightHandThumb2
											{
												OFFSET -2.321518 -1.340328 1.340329
												CHANNELS 3 Xrotation Yrotation Zrotation
												JOINT RightHandThumb3
												{
													OFFSET -2.657753 -1.534454 1.534455
													CHANNELS 3 Xrotation Yrotation Zrotation
													JOINT RightHandThumb4
													{
														OFFSET -1.807510 -1.043568 1.043567
														CHANNELS 3 Xrotation Yrotation Zrotation
														End Site
														{
															OFFSET 0.000000 0.000000 0.000000
														}
													}
												}
											}
										}
										JOINT RightHandIndex1
										{
											OFFSET -8.811420 0.015533 2.887987
											CHANNELS 3 Xrotation Yrotation Zrotation
											JOINT RightHandIndex2
											{
												OFFSET -3.537502 0.000000 0.000000
												CHANNELS 3 Xrotation Yrotation Zrotation
												JOINT RightHandIndex3
												{
													OFFSET -3.356201 0.000000 0.000000
													CHANNELS 3 Xrotation Yrotation Zrotation
													JOINT RightHandIndex4
													{
														OFFSET -1.933098 0.000000 0.000000
														CHANNELS 3 Xrotation Yrotation Zrotation
														End Site
														{
															OFFSET 0.000000 0.000000 0.000000
														}
													}
												}
											}
										}
										JOINT RightHandMiddle1
										{
											OFFSET -8.178135 0.000000 0.000000
											CHANNELS 3 Xrotation Yrotation Zrotation
											JOINT RightHandMiddle2
											{
												OFFSET -3.901302 0.000000 0.000000
												CHANNELS 3 Xrotation Yrotation Zrotation
												JOINT RightHandMiddle3
												{
													OFFSET -3.909599 0.000000 0.000000
													CHANNELS 3 Xrotation Yrotation Zrotation
													JOINT RightHandMiddle4
													{
														OFFSET -2.376003 0.000000 0.000000
														CHANNELS 3 Xrotation Yrotation Zrotation
														End Site
														{
															OFFSET 0.000000 0.000000 0.000000
														}
													}
												}
											}
										}
										JOINT RightHandRing1
										{
											OFFSET -7.559013 0.014137 -2.865403
											CHANNELS 3 Xrotation Yrotation Zrotation
											JOINT RightHandRing2
											{
												OFFSET -3.449306 0.000000 0.000000
												CHANNELS 3 Xrotation Yrotation Zrotation
												JOINT RightHandRing3
												{
													OFFSET -3.362106 0.000000 0.000000
													CHANNELS 3 Xrotation Yrotation Zrotation
													JOINT RightHandRing4
													{
														OFFSET -2.076401 0.000000 0.000000
														CHANNELS 3 Xrotation Yrotation Zrotation
														End Site
														{
															OFFSET 0.000000 0.000000 0.000000
														}
													}
												}
											}
										}
									}
								}
							}
						}
					}
				}
			}
		}
	}
	JOINT LeftUpLeg
	{
		OFFSET 10.205400 -3.823500 0.155100
		CHANNELS 3 Xrotation Yrotation Zrotation
		JOINT LeftLeg
		{
			OFFSET 0.708757 -12.982077 0.567790
			CHANNELS 3 Xrotation Yrotation Zrotation
			JOINT LeftFoot
			{
				OFFSET -0.708756 -10.717838 -2.184338
				CHANNELS 3 Xrotation Yrotation Zrotation
				JOINT LeftToeBase
				{
					OFFSET 0.108149 -7.191104 7.560241
					CHANNELS 3 Xrotation Yrotation Zrotation
					JOINT LeftToe_End
					{
						OFFSET 0.070230 0.081724 4.490308
						CHANNELS 3 Xrotation Yrotation Zrotation
						End Site
						{
							OFFSET 0.000000 0.000000 0.000000
						}
					}
				}
			}
		}
	}
	JOINT RightUpLeg
	{
		OFFSET -10.205400 -3.823500 0.005500
		CHANNELS 3 Xrotation Yrotation Zrotation
		JOINT RightLeg
		{
			OFFSET -0.708756 -12.982134 0.610632
			CHANNELS 3 Xrotation Yrotation Zrotation
			JOINT RightFoot
			{
				OFFSET 0.708754 -10.717769 -1.945823
				CHANNELS 3 Xrotation Yrotation Zrotation
				JOINT RightToeBase
				{
					OFFSET -0.108140 -7.191069 7.372968
					CHANNELS 3 Xrotation Yrotation Zrotation
					JOINT RightToe_End
					{
						OFFSET -0.070227 0.081735 4.479403
						CHANNELS 3 Xrotation Yrotation Zrotation
						End Site
						{
							OFFSET 0.000000 0.000000 0.000000
						}
					}
				}
			}
		}
	}
}
MOTION
Frames: 5
Frame Time: 0.016667
27.592585 32.667393 17.574558 4.622559 68.366068 -4.817437 1.457983 15.785161 -1.752321 0.302476 12.349534 -1.690997 0.000000 0.000000 0.000000 0.319024 12.258881 -2.268430 30.683795 -16.732681 8.274243 -37.265567 -69.684404 -3.375908 0.000000 -0.000000 0.000000 -2.027420 -8.616096 -14.640835 0.000000 0.000000 0.000000 564.659170 -127.569506 506.102155 0.000010 -67.460822 0.000018 -133.641530 -5.524216 50.252038 -10.936373 -6.746925 10.333055 -18.089409 8.879764 2.392669 2.024243 8.904791 14.660557 -0.000003 -0.000001 -0.000002 5.890333 8.200075 -88.621821 6.193136 5.841103 -93.357655 1.838888 4.262289 -46.658112 0.000000 0.000003 -0.000000 7.765530 7.904032 -107.399472 3.749169 5.461729 -68.913494 2.406849 4.732789 -53.891381 0.000001 -0.000001 0.000002 7.314719 8.035638 -105.794986 3.608016 5.405432 -67.422915 0.590225 2.564551 -25.917344 0.000002 -0.000001 0.000003 -8.395383 33.279868 21.038929 0.000000 0.000000 0.000000 6.092944 31.507499 48.663442 0.000018 48.322417 0.000003 -20.121558 -43.295316 5.646338 17.912420 17.120588 -32.483512 12.694433 -52.014220 20.210864 2.934334 3.697806 -26.040882 -0.000000 -0.000002 0.000005 0.276352 -8.899007 1.740154 5.888275 -4.491838 105.344207 2.534061 -4.146028 62.852815 -0.000000 0.000000 0.000001 4.166158 -8.600788 42.153199 7.050179 -3.996501 120.947132 0.504905 -2.110855 26.901272 0.000000 0.000000 -0.000000 -0.361090 -4.549270 57.044237 4.703212 -4.656934 90.567120 2.413039 -4.081872 61.166004 0.000000 -0.000001 0.000003 -36.796644 -9.026372 -2.193130 17.404543 1.908750 -7.825866 19.216650 -18.476112 7.390032 0.069463 -2.860505 -0.863369 0.000000 -0.000003 0.000000 16.845632 -13.987095 2.887612 29.882819 -0.861274 -2.975419 -13.084546 -14.640837 10.897189 -28.204004 -1.772626 3.903185 0.000000 -0.000001 0.000000 
27.410868 32.625870 17.541557 4.298161 67.181461 -4.436485 1.477519 15.452360 -1.726447 0.343534 12.111569 -1.597175 0.000000 0.000000 0.000000 0.355241 12.030016 -2.142362 30.067722 -16.587181 7.620737 -36.544446 -68.821847 -2.824785 0.000000 0.000000 -0.000000 -1.967091 -8.442183 -14.580917 0.000000 0.000000 0.000000 563.731630 -126.918302 505.300619 0.000007 -66.037329 -0.000000 -133.517016 -3.963425 49.001857 -10.936460 -6.746919 10.333380 -18.089404 8.879766 2.392666 2.035132 8.896532 14.627320 -0.000001 -0.000002 -0.000000 5.890338 8.200067 -88.621827 6.193148 5.841106 -93.357648 1.839657 4.263016 -46.668480 -0.000001 0.000002 0.000001 7.765522 7.904043 -107.399520 3.753033 5.463213 -68.954093 2.408259 4.733818 -53.908491 -0.000001 0.000002 -0.000000 7.314724 8.035651 -105.794993 3.608016 5.405422 -67.422908 0.623892 2.632655 -26.660026 -0.000001 -0.000000 0.000001 -8.428579 32.859057 21.486421 0.000000 0.000000 0.000000 5.768041 31.090980 48.692019 -0.000009 48.134413 -0.000009 -19.464972 -44.389440 4.704359 17.912426 17.120593 -32.483540 12.694439 -52.014216 20.210863 2.934335 3.697804 -26.040880 0.000001 -0.000002 0.000005 0.276349 -8.899002 1.740164 5.888276 -4.491838 105.344207 2.534428 -4.146221 62.857917 0.000001 -0.000000 -0.000001 4.166166 -8.600788 42.153195 7.050178 -3.996502 120.947132 0.504900 -2.110851 26.901264 0.000000 0.000000 0.000000 -0.361103 -4.549273 57.044248 4.703211 -4.656936 90.567120 2.413030 -4.081866 61.166017 -0.000001 -0.000000 -0.000001 -36.996611 -9.010707 -1.549697 18.208581 2.619061 -8.055301 18.635905 -18.371489 7.201449 0.069557 -2.860510 -0.863356 0.000000 0.000005 -0.000000 17.221578 -12.535575 2.347357 29.282390 -1.586113 -2.894986 -15.114732 -17.553310 10.282595 -23.617592 -2.081405 5.815718 -0.000000 -0.000000 0.000000 
27.179001 32.563347 17.486406 4.032460 65.897569 -4.134206 1.465588 15.131019 -1.708367 0.349805 11.848920 -1.478820 0.000000 0.000000 0.000000 0.356717 11.776943 -1.992127 29.489352 -16.410173 6.935825 -35.776329 -67.919825 -2.237535 -0.000001 -0.000000 -0.000000 -1.896980 -8.276098 -14.474761 0.000000 0.000000 0.000000 562.789501 -126.168388 504.520666 0.000007 -64.514354 0.000028 -133.165903 -2.289621 47.769411 -10.936574 -6.746933 10.333414 -18.089404 8.879765 2.392667 2.046072 8.888224 14.593864 -0.000002 0.000001 -0.000000 5.890352 8.200072 -88.621814 6.193136 5.841106 -93.357628 1.839919 4.263249 -46.671796 0.000000 -0.000002 0.000002 7.765531 7.904037 -107.399472 3.758006 5.465100 -69.006289 2.408697 4.734139 -53.914003 -0.000002 -0.000001 0.000001 7.314733 8.035652 -105.794986 3.608009 5.405422 -67.422894 0.659593 2.702515 -27.426923 0.000002 0.000001 -0.000002 -8.483156 32.397780 22.014840 0.000000 0.000000 0.000000 5.553984 30.650344 48.597800 0.000009 48.025492 -0.000002 -19.267284 -45.436321 3.569746 17.912431 17.120585 -32.483543 12.694429 -52.014216 20.210875 2.934333 3.697803 -26.040882 0.000002 0.000000 -0.000000 0.276365 -8.899009 1.740151 5.888274 -4.491838 105.344207 2.534561 -4.146274 62.859713 0.000000 -0.000000 -0.000001 4.166159 -8.600786 42.153213 7.050179 -3.996498 120.947132 0.504899 -2.110858 26.901275 -0.000000 0.000000 -0.000000 -0.361090 -4.549274 57.044244 4.703212 -4.656935 90.567120 2.413020 -4.081875 61.166024 0.000000 0.000001 -0.000001 -37.346245 -8.968431 -0.788790 19.132137 3.394276 -8.356921 18.108360 -18.318388 7.017429 0.069627 -2.860490 -0.863353 0.000000 0.000000 -0.000000 18.564864 -11.594170 2.199142 27.184969 -0.518558 -2.950623 -16.761549 -22.399465 8.885955 -18.713385 -2.046862 7.871919 -0.000001 -0.000000 -0.000000 
26.960209 32.495544 17.424877 3.816400 64.675355 -3.798172 1.485553 14.779061 -1.783251 0.371863 11.541085 -1.378604 0.000000 0.000000 0.000000 0.372753 11.478277 -1.856313 28.899306 -16.213870 6.271609 -35.170679 -67.009647 -1.806527 -0.000000 -0.000002 0.000000 -1.822199 -8.117064 -14.348539 0.000000 0.000000 0.000000 561.935728 -125.327824 503.893436 -0.000008 -62.965089 -0.000001 -132.533073 -0.580736 46.575770 -10.936747 -6.746931 10.333216 -18.089409 8.879772 2.392672 2.057064 8.879861 14.560251 -0.000002 -0.000003 -0.000002 5.890355 8.200078 -88.621821 6.193157 5.841089 -93.357628 1.839748 4.263096 -46.669716 -0.000001 -0.000001 -0.000002 7.765524 7.904035 -107.399486 3.763881 5.467357 -69.068007 2.408417 4.733940 -53.910550 0.000002 -0.000001 -0.000001 7.314740 8.035645 -105.794993 3.608023 5.405428 -67.422908 0.697110 2.773532 -28.212563 0.000000 0.000002 0.000001 -8.552594 31.896912 22.612280 0.000000 0.000000 0.000000 5.447654 30.142520 48.410861 0.000015 48.027619 -0.000007 -19.755357 -46.276123 2.025972 17.912408 17.120583 -32.483546 12.694429 -52.014226 20.210864 2.934331 3.697800 -26.040880 -0.000001 -0.000000 0.000001 0.276338 -8.899008 1.740166 5.888276 -4.491838 105.344207 2.534508 -4.146249 62.858955 0.000001 0.000001 0.000001 4.166151 -8.600792 42.153209 7.050178 -3.996499 120.947132 0.504904 -2.110858 26.901275 -0.000002 0.000001 -0.000000 -0.361092 -4.549276 57.044241 4.703212 -4.656933 90.567120 2.413041 -4.081873 61.166038 -0.000001 -0.000001 0.000003 -37.616037 -8.909820 -0.145227 19.887318 4.215407 -8.645696 17.686334 -18.311508 6.867670 0.069712 -2.860532 -0.863348 0.000000 0.000002 -0.000000 20.074148 -11.557122 2.199551 24.648655 1.110422 -3.148425 -18.344944 -27.388254 7.006368 -13.899424 -1.696788 9.744208 0.000001 -0.000000 0.000000 
26.756212 32.417442 17.327366 3.593636 63.547206 -3.270228 1.543466 14.420742 -2.048051 0.384029 11.204901 -1.354484 0.000000 0.000000 0.000000 0.372951 11.147822 -1.802457 28.337751 -15.959459 5.895240 -34.690237 -65.950845 -1.638423 -0.000000 0.000001 0.000000 -1.753736 -7.966565 -14.248966 0.000000 0.000000 0.000000 561.259266 -124.487028 503.514442 -0.000013 -61.536193 -0.000005 -131.520224 1.050244 45.453983 -10.936942 -6.746893 10.332904 -18.089409 8.879769 2.392666 2.068137 8.871433 14.526431 -0.000002 0.000002 -0.000000 5.890346 8.200066 -88.621821 6.193140 5.841103 -93.357628 1.839425 4.262797 -46.665328 -0.000000 0.000001 0.000002 7.765533 7.904038 -107.399472 3.770421 5.469832 -69.136541 2.407828 4.733511 -53.903293 -0.000001 0.000003 0.000000 7.314732 8.035646 -105.794993 3.608004 5.405431 -67.422901 0.736245 2.845196 -29.010894 -0.000000 -0.000002 -0.000003 -8.616501 31.369399 23.230768 0.000000 0.000000 0.000000 5.446729 29.578985 48.139989 -0.000017 48.198442 0.000019 -21.028402 -46.822111 -0.047396 17.912419 17.120588 -32.483523 12.694441 -52.014216 20.210870 2.934332 3.697806 -26.040878 -0.000000 -0.000006 -0.000001 0.276353 -8.899007 1.740178 5.888279 -4.491838 105.344207 2.534373 -4.146200 62.857152 0.000000 0.000000 0.000001 4.166162 -8.600782 42.153216 7.050175 -3.996500 120.947132 0.504905 -2.110853 26.901277 0.000003 0.000000 -0.000000 -0.361086 -4.549264 57.044241 4.703213 -4.656940 90.567120 2.413051 -4.081875 61.166004 -0.000001 0.000001 -0.000002 -37.722018 -9.034681 0.112231 20.230457 5.350447 -8.814774 17.515233 -18.306012 6.733649 0.069801 -2.860492 -0.863340 0.000000 0.000000 -0.000000 22.163918 -12.828071 2.576734 21.327909 3.716568 -3.625752 -19.958006 -32.117721 4.559651 -11.814701 -1.037811 8.485639 -0.000000 0.000001 -0.000000 
